# File created by Blade
# Date/Time:  Thu Jan 22 16:00:44 2015
# Frame Rate: 120.000 fps
#------------------------------------------------------
:FULLY-SPECIFIED
:DEGREES
2252
root 1.916142 37.028591 6.684984 -10.328934 -1.103195 1.709930
RightUpLeg 19.210510 -0.081019 -3.302509
RightLeg -4.494988 -0.000000 0.000000
RightFoot -12.234424 -9.534777 16.980594
RightToeBase 13.723099 -0.000000 -0.000000
LeftUpLeg 16.183317 3.161770 5.249191
LeftLeg -1.666783 -0.000000 0.000000
LeftFoot -6.756628 5.742234 -18.511670
LeftToeBase 7.823915 -0.000000 -0.000000
Spine 20.727267 -3.511901 -5.339944
RightShoulder 8.831653 -46.015166 -17.820954
RightArm 67.947582 -77.821177 13.391083
RightForeArm -53.257309 -0.000000 95.504930
RightHand 29.413234 -0.000000 -5.591526
RightHandThumb1 -24.326973 -0.000000 -32.862282
LeftShoulder -26.195082 44.885828 -4.725521
LeftArm 39.218948 8.405734 -50.412496
LeftForeArm 18.637513 -0.000000 41.788498
LeftHand -15.646334 0.000000 -8.258471
LeftHandThumb1 -26.253704 0.000000 33.147579
Head 18.570089 0.451369 -1.521689
2253
root 1.922852 37.031601 6.680019 -10.391186 -1.078992 1.729330
RightUpLeg 19.235485 -0.109396 -3.335181
RightLeg -4.431656 -0.000000 0.000000
RightFoot -12.257740 -9.540957 16.969928
RightToeBase 13.692277 -0.000000 -0.000000
LeftUpLeg 16.204201 3.109574 5.211452
LeftLeg -1.611785 -0.000000 0.000000
LeftFoot -6.757846 5.761154 -18.542444
LeftToeBase 7.787336 -0.000000 -0.000000
Spine 20.785625 -3.435455 -5.403033
RightShoulder 8.945479 -46.036472 -17.941002
RightArm 67.634488 -77.842575 13.686155
RightForeArm -53.138020 -0.000000 95.786181
RightHand 29.164938 -0.000000 -5.165476
RightHandThumb1 -24.326973 -0.000000 -32.862282
LeftShoulder -26.109197 44.982422 -4.583813
LeftArm 39.278686 8.543209 -49.994656
LeftForeArm 19.292403 -0.000000 41.753165
LeftHand -15.833769 -0.000000 -7.541316
LeftHandThumb1 -26.253704 0.000000 33.147579
Head 19.316889 -0.459717 -1.662151
2254
root 1.928218 37.034583 6.672166 -10.447881 -1.051162 1.745668
RightUpLeg 19.247035 -0.123070 -3.358337
RightLeg -4.360601 -0.000000 0.000000
RightFoot -12.275023 -9.560557 16.952245
RightToeBase 13.663471 -0.000000 -0.000000
LeftUpLeg 16.203696 3.072380 5.181663
LeftLeg -1.532961 -0.000000 0.000000
LeftFoot -6.768590 5.757959 -18.547029
LeftToeBase 7.853157 -0.000000 -0.000000
Spine 20.859847 -3.370202 -5.475324
RightShoulder 9.054103 -46.068478 -18.058674
RightArm 67.182749 -77.834201 14.127390
RightForeArm -52.988057 -0.000000 96.050533
RightHand 28.894037 -0.000000 -4.642593
RightHandThumb1 -24.326973 -0.000000 -32.862282
LeftShoulder -26.044836 45.034449 -4.429526
LeftArm 39.298285 8.701505 -49.584973
LeftForeArm 19.713894 0.000000 41.833093
LeftHand -15.814361 -0.000000 -7.774488
LeftHandThumb1 -26.253704 0.000000 33.147579
Head 20.025087 -1.349146 -1.791181
2255
root 1.933092 37.037545 6.664978 -10.493358 -1.003192 1.763579
RightUpLeg 19.255036 -0.152568 -3.386444
RightLeg -4.294373 -0.000000 0.000000
RightFoot -12.296961 -9.570884 16.954156
RightToeBase 13.626947 -0.000000 -0.000000
LeftUpLeg 16.189552 3.019874 5.146189
LeftLeg -1.457302 -0.000000 0.000000
LeftFoot -6.764563 5.767640 -18.526772
LeftToeBase 7.809136 -0.000000 -0.000000
Spine 20.919205 -3.298211 -5.546954
RightShoulder 9.115047 -46.098219 -18.138154
RightArm 66.471772 -77.849892 14.829755
RightForeArm -52.768057 -0.000000 96.297461
RightHand 28.751418 0.000000 -4.159992
RightHandThumb1 -24.326973 -0.000000 -32.862282
LeftShoulder -25.960259 45.078429 -4.237581
LeftArm 39.359930 8.890952 -49.157077
LeftForeArm 20.146878 0.000000 41.869254
LeftHand -15.860994 -0.000000 -7.557526
LeftHandThumb1 -26.253704 0.000000 33.147579
Head 20.729762 -2.221928 -1.918006
2256
root 1.940157 37.040733 6.657830 -10.520864 -0.966530 1.781407
RightUpLeg 19.244970 -0.160510 -3.414222
RightLeg -4.230290 -0.000000 0.000000
RightFoot -12.323555 -9.581099 16.977326
RightToeBase 13.654054 -0.000000 -0.000000
LeftUpLeg 16.162649 2.999923 5.113202
LeftLeg -1.387593 -0.000000 0.000000
LeftFoot -6.770695 5.756890 -18.519637
LeftToeBase 7.829750 -0.000000 -0.000000
Spine 20.952171 -3.239317 -5.614990
RightShoulder 9.197257 -46.155114 -18.251718
RightArm 65.880345 -77.828232 15.436897
RightForeArm -52.572937 -0.000000 96.477083
RightHand 28.818561 0.000000 -3.856456
RightHandThumb1 -24.326973 -0.000000 -32.862282
LeftShoulder -25.916304 45.136780 -4.088307
LeftArm 39.425914 9.063243 -48.732193
LeftForeArm 20.573259 0.000000 41.960276
LeftHand -15.703829 -0.000000 -7.792943
LeftHandThumb1 -26.253704 0.000000 33.147579
Head 21.443392 -3.003018 -2.061366
